<?xml version="1.0" encoding="UTF-8" standalone="no"?>
<!-- Created with Inkscape (http://www.inkscape.org/) -->

<svg
   xmlns:osb="http://www.openswatchbook.org/uri/2009/osb"
   xmlns:dc="http://purl.org/dc/elements/1.1/"
   xmlns:cc="http://creativecommons.org/ns#"
   xmlns:rdf="http://www.w3.org/1999/02/22-rdf-syntax-ns#"
   xmlns:svg="http://www.w3.org/2000/svg"
   xmlns="http://www.w3.org/2000/svg"
   xmlns:sodipodi="http://sodipodi.sourceforge.net/DTD/sodipodi-0.dtd"
   xmlns:inkscape="http://www.inkscape.org/namespaces/inkscape"
   width="354.33069"
   height="354.33069"
   id="svg2"
   version="1.1"
   inkscape:version="0.48.2 r9819"
   sodipodi:docname="9.svg">
  <defs
     id="defs4">
    <linearGradient
       id="linearGradient3912"
       osb:paint="solid">
      <stop
         style="stop-color:#000000;stop-opacity:1;"
         offset="0"
         id="stop3914" />
    </linearGradient>
  </defs>
  <sodipodi:namedview
     id="base"
     pagecolor="#ffffff"
     bordercolor="#666666"
     borderopacity="1.0"
     inkscape:pageopacity="0.0"
     inkscape:pageshadow="2"
     inkscape:zoom="1"
     inkscape:cx="-114.38765"
     inkscape:cy="116.89502"
     inkscape:document-units="px"
     inkscape:current-layer="layer1"
     showgrid="false"
     units="mm"
     inkscape:window-width="1607"
     inkscape:window-height="1006"
     inkscape:window-x="73"
     inkscape:window-y="0"
     inkscape:window-maximized="1" />
  <metadata
     id="metadata7">
    <rdf:RDF>
      <cc:Work
         rdf:about="">
        <dc:format>image/svg+xml</dc:format>
        <dc:type
           rdf:resource="http://purl.org/dc/dcmitype/StillImage" />
        <dc:title></dc:title>
      </cc:Work>
    </rdf:RDF>
  </metadata>
  <g
     inkscape:label="Layer 1"
     inkscape:groupmode="layer"
     id="layer1"
     transform="translate(0,-698.03143)">
    <path
       style="fill:none;stroke:#000000;stroke-width:2;stroke-linecap:butt;stroke-linejoin:miter;stroke-opacity:1;stroke-miterlimit:4;stroke-dasharray:none"
       d="m 168,70.330688 c 0.62706,4.294294 -0.53748,8.70013 0,13 0.42164,3.373097 1.44115,6.646906 2,10 0.77498,4.649906 1.10423,9.371842 2,14.000002 1.1062,5.71535 3.04297,11.25779 4,17 1.33235,7.99411 1,17.95285 1,26 0,3.66667 0,7.33333 0,11 0,4.33333 0.41084,8.68618 0,13 -0.26061,2.73635 -1.49344,5.29834 -2,8 -1.21082,9.68655 -0.47295,5.36477 -2,13 -0.33333,1.66667 -0.63129,3.3408 -1,5 -0.59628,2.68328 -1.54811,5.28866 -2,8 -0.1096,0.65759 0.1096,1.3424 0,2 -0.22594,1.35567 -0.80563,2.63944 -1,4 -0.14142,0.98995 0.14142,2.01005 0,3 -0.38873,2.72111 -1.46093,5.30464 -2,8 -1.31956,6.59782 -2.04902,13.34316 -3,20 -0.33333,2.33333 -0.61251,4.67505 -1,7 -0.27942,1.67655 -0.83088,3.30876 -1,5 -0.16584,1.65839 0,3.33333 0,5 0,2.66667 0,5.33333 0,8 0,0.27957 0.0782,4.84354 0,5 -0.14907,0.29814 -0.66667,0 -1,0 0,0.66667 0,1.33333 0,2"
       id="path3755"
       inkscape:connector-curvature="0"
       transform="translate(0,698.03143)" />
    <path
       style="fill:none;stroke:#000000;stroke-width:2;stroke-linecap:butt;stroke-linejoin:miter;stroke-miterlimit:4;stroke-opacity:1;stroke-dasharray:none"
       d="m 167,928.36212 c 4.16872,6.25307 3.41694,5.97524 9,11 1.58647,1.42782 3.41353,2.57218 5,4 1.75196,1.57676 3.15947,3.52758 5,5 1.51774,1.21419 3.46578,1.80671 5,3 1.48842,1.15766 2.66667,2.66667 4,4 0.66667,0.66667 1.41103,1.26379 2,2 4.95824,6.19779 -0.11569,0.32646 3,5 0.26149,0.39223 0.73851,0.60777 1,1 0.60899,0.91349 0.85358,2.42679 2,3 0.29814,0.14907 0.7643,-0.2357 1,0 3.90273,3.90273 -0.23148,0.53705 1,3 0.21082,0.42164 0.66667,0.66667 1,1 0.66667,0.66667 1.43431,1.24575 2,2 0.44721,0.59628 0.55279,1.40371 1,2 -2.46761,3.02748 2.72006,1.72006 3,2 0.52705,0.52704 0.66667,1.33333 1,2"
       id="path3824"
       inkscape:connector-curvature="0" />
    <path
       style="fill:none;stroke:#000000;stroke-width:2;stroke-linecap:butt;stroke-linejoin:miter;stroke-opacity:1;stroke-miterlimit:4;stroke-dasharray:none"
       d="m 161,231.33069 c -1.33333,0.33333 -2.77073,0.38536 -4,1 -0.84327,0.42164 -1.26379,1.41103 -2,2 -6.30744,5.04595 -0.17098,-0.82902 -5,4 -0.66667,0.66667 -1.15673,1.57836 -2,2 -1.90795,0.95397 -1.92702,-1.14597 -3,1 -0.4714,0.94281 -0.45767,2.09612 -1,3 -3,5 -1,0 -3,3 -0.41345,0.62017 -0.58655,1.37982 -1,2 -0.52298,0.78446 -1.47702,1.21553 -2,2 -0.41345,0.62017 -0.55279,1.40371 -1,2 -0.56569,0.75425 -1.41103,1.26379 -2,2 -0.75079,0.93849 -1.24921,2.06151 -2,3 -0.58897,0.73621 -1.51493,1.19155 -2,2 -0.54233,0.90388 -0.5286,2.05719 -1,3 -0.21082,0.42164 -0.73851,0.60777 -1,1 -0.41345,0.62017 -0.37983,1.58655 -1,2 -0.5547,0.3698 -1.4453,-0.3698 -2,0 -0.62017,0.41345 -0.47295,1.47295 -1,2 -0.2357,0.2357 -0.85093,-0.29814 -1,0 -0.29814,0.59628 0.21082,1.36754 0,2 -0.13147,0.39441 -3.47708,3.47708 -4,4"
       id="path3847"
       inkscape:connector-curvature="0"
       transform="translate(0,698.03143)" />
    <path
       style="fill:none;stroke:#000000;stroke-width:2;stroke-linecap:butt;stroke-linejoin:miter;stroke-opacity:1;stroke-miterlimit:4;stroke-dasharray:none"
       d="m 170,71.330688 c 22.33333,0 44.66667,0 67,0 6,0 12,0 18,0 2,0 4.00821,-0.181071 6,0 1.69269,0.153882 3.30876,0.830877 5,1 2.65343,0.265344 5.33333,0 8,0 5.66667,0 11.33333,0 17,0 2.24254,8.970143 2,5.251263 2,11 0,1.333334 -0.13267,2.673284 0,4 0.20175,2.017525 0.85554,3.977566 1,6 0.18999,2.65989 0,5.333334 0,8.000002 0,3.33333 0,6.66667 0,10 0,3.33333 0,6.66667 0,10 0,1 0.1644,2.0136 0,3 -0.17329,1.03975 -0.79328,1.96638 -1,3 -0.13074,0.65372 0.1096,1.3424 0,2 -0.22594,1.35567 -0.77406,2.64433 -1,4 -0.1096,0.65759 0.16169,1.35324 0,2 -1.63215,6.52859 -0.53697,-3.77818 -2,5 -0.1644,0.98639 0.19612,2.01942 0,3 -0.14618,0.73088 -0.85382,1.26912 -1,2 -0.19612,0.98058 0,2 0,3 0,1.66667 0,3.33333 0,5"
       id="path3868"
       inkscape:connector-curvature="0"
       transform="translate(0,698.03143)" />
    <path
       sodipodi:type="arc"
       style="fill:none;stroke:#000000;stroke-width:2;stroke-miterlimit:4;stroke-opacity:1;stroke-dasharray:none"
       id="path3910"
       sodipodi:cx="273"
       sodipodi:cy="161.33069"
       sodipodi:rx="27"
       sodipodi:ry="27"
       d="m 300,161.33069 a 27,27 0 1 1 -54,0 27,27 0 1 1 54,0 z"
       transform="translate(18,718.03143)" />
    <path
       style="fill:none;stroke:#000000;stroke-width:2;stroke-linecap:butt;stroke-linejoin:miter;stroke-opacity:1;stroke-miterlimit:4;stroke-dasharray:none"
       d="m 292,213.33069 c 0,1.66667 0.18405,3.34353 0,5 -0.15177,1.36596 -0.84823,2.63404 -1,4 -0.18405,1.65647 0,3.33333 0,5 0,3 0,6 0,9 0,1.33333 0,2.66667 0,4 0,1 -0.1644,2.0136 0,3 0.17329,1.03975 0.85093,1.9565 1,3 0.18856,1.31993 0,2.66667 0,4 0,0.66667 -0.21082,1.36754 0,2 0.14907,0.44721 0.78918,0.57836 1,1 0.4714,0.94281 0.74435,1.97738 1,3 0.17014,0.68054 -0.27344,2.45311 0,3 0.21082,0.42164 0.85093,0.55278 1,1 0.114,0.34201 0.0493,6.80277 0,7 -0.18078,0.7231 -0.72318,1.30795 -1,2 -0.78296,1.9574 -1.42084,3.97293 -2,6 -0.37757,1.32149 -0.66667,2.66667 -1,4 -0.33333,1.33333 -0.80563,2.63944 -1,4 -0.14142,0.98995 0.1644,2.0136 0,3 -1.10541,6.63245 -1,0.89722 -1,4"
       id="path3937"
       inkscape:connector-curvature="0"
       transform="translate(0,698.03143)" />
    <path
       style="fill:none;stroke:#000000;stroke-width:2;stroke-linecap:butt;stroke-linejoin:miter;stroke-opacity:1;stroke-miterlimit:4;stroke-dasharray:none"
       d="m 263,229.33069 c 14.036,4.67866 0.0186,-0.98762 9,5 0.87706,0.5847 2.05719,0.52859 3,1 1.07497,0.53748 1.96942,1.38165 3,2 0.63914,0.38348 1.58655,0.37982 2,1 0.3698,0.5547 -0.29814,1.40371 0,2 0.13197,0.26393 1.40268,-0.19911 2,0 0.70711,0.2357 1.33333,0.66667 2,1 0.66667,0.33333 1.37983,0.58655 2,1 0.39223,0.26149 0.60777,0.73851 1,1 0.62017,0.41345 1.37983,0.58655 2,1 0.78446,0.52297 1.33333,1.33333 2,2 2.33333,-2 4.66667,-4 7,-6 0,-0.33333 -0.14907,-0.70186 0,-1 0.21082,-0.42164 0.60777,-0.73851 1,-1 0.62017,-0.41345 1.47295,-0.47296 2,-1 0.52705,-0.52705 0.47295,-1.47296 1,-2 0.52705,-0.52705 1.37983,-0.58655 2,-1 0.39223,-0.26149 0.66667,-0.66667 1,-1 0.33333,-0.33333 0.78918,-0.57836 1,-1 0.14907,-0.29814 -0.2357,-0.7643 0,-1 0.2357,-0.2357 0.68377,0.10541 1,0 0.70711,-0.2357 1.29289,-0.7643 2,-1 1.30384,-0.43462 2.77073,-0.38537 4,-1 4.55228,-4.55229 -0.41421,-0.5286 4,-2 1.618,-0.53934 0.31178,-2 3,-2"
       id="path3958"
       inkscape:connector-curvature="0"
       transform="translate(0,698.03143)" />
  </g>
</svg>
